<svg xmlns="http://www.w3.org/2000/svg" width="1600" height="1000" viewBox="0 0 1600 1000" role="img" aria-labelledby="title desc">
  <title id="title">Graphical Abstract Starter</title>
  <desc id="desc">An editable three-stage scientific process template.</desc>
  <rect width="1600" height="1000" fill="#f8fbfd"/>
  <text x="100" y="110" fill="#1a2433" font-family="Georgia,serif" font-size="54" font-weight="700">Graphical Abstract Starter</text>
  <text x="102" y="155" fill="#5a6675" font-family="Arial,sans-serif" font-size="22">Question → mechanism → outcome</text>
  <path d="M310 500 C440 430 510 570 650 500 S870 430 1010 500 S1240 570 1370 500" fill="none" stroke="#a8cce5" stroke-width="8" stroke-linecap="round"/>
  <g font-family="Arial,sans-serif" text-anchor="middle">
    <g transform="translate(280 500)">
      <circle r="150" fill="#fff" stroke="#d8e6ef" stroke-width="4"/>
      <circle r="74" fill="#e9f4fb"/>
      <path d="M-28 0h56M0-28v56" stroke="#1f7fc4" stroke-width="12" stroke-linecap="round"/>
      <text y="215" fill="#1a3a5c" font-size="28" font-weight="700">RESEARCH QUESTION</text>
    </g>
    <g transform="translate(800 500)">
      <circle r="150" fill="#fff" stroke="#d8e6ef" stroke-width="4"/>
      <circle r="76" fill="#f7e9e5"/>
      <circle cx="-25" cy="-5" r="20" fill="#c0653f"/>
      <circle cx="28" cy="-32" r="16" fill="#c0653f"/>
      <circle cx="30" cy="32" r="24" fill="#c0653f"/>
      <path d="M-8-10L15-24M-5 8L10 22" stroke="#c0653f" stroke-width="8"/>
      <text y="215" fill="#1a3a5c" font-size="28" font-weight="700">CORE MECHANISM</text>
    </g>
    <g transform="translate(1320 500)">
      <circle r="150" fill="#fff" stroke="#d8e6ef" stroke-width="4"/>
      <circle r="76" fill="#e8f5f1"/>
      <path d="M-38 4l25 28 54-68" fill="none" stroke="#238765" stroke-width="14" stroke-linecap="round" stroke-linejoin="round"/>
      <text y="215" fill="#1a3a5c" font-size="28" font-weight="700">KEY OUTCOME</text>
    </g>
  </g>
  <rect x="100" y="840" width="1400" height="60" rx="30" fill="#edf4f8"/>
  <text x="800" y="879" fill="#5a6675" font-family="Arial,sans-serif" font-size="22" text-anchor="middle">Replace labels, colors, and scientific elements with your own content</text>
</svg>
