<svg xmlns="http://www.w3.org/2000/svg" viewBox="0 0 1280 720" role="img" aria-label="Publication-ready scientific illustration">
  <defs>
    <radialGradient id="bg" cx="52%" cy="42%" r="68%">
      <stop offset="0%" stop-color="#eefcff"/>
      <stop offset="72%" stop-color="#ffffff"/>
    </radialGradient>
    <linearGradient id="cell" x1="0%" x2="100%" y1="0%" y2="100%">
      <stop offset="0%" stop-color="#76e8f6"/>
      <stop offset="54%" stop-color="#a7f3d0"/>
      <stop offset="100%" stop-color="#ffd4cc"/>
    </linearGradient>
    <linearGradient id="flow" x1="0%" x2="100%" y1="0%" y2="0%">
      <stop offset="0%" stop-color="#0ea5e9"/>
      <stop offset="58%" stop-color="#14b8a6"/>
      <stop offset="100%" stop-color="#fb7185"/>
    </linearGradient>
    <filter id="shadow" x="-30%" y="-30%" width="160%" height="160%">
      <feDropShadow dx="0" dy="22" stdDeviation="22" flood-color="#0f172a" flood-opacity="0.13"/>
    </filter>
  </defs>
  <rect width="1280" height="720" fill="url(#bg)"/>
  <rect x="60" y="50" width="1160" height="620" rx="42" fill="#ffffff" opacity="0.66"/>

  <g fill="none" stroke-linecap="round" stroke-linejoin="round">
    <path d="M176 362C258 252 354 278 436 352C528 434 632 428 718 334C802 246 896 258 1014 330" stroke="url(#flow)" stroke-width="12" opacity="0.62"/>
    <path d="M192 452C320 508 448 500 562 432C680 362 796 380 926 474" stroke="#a5b4fc" stroke-width="5" stroke-dasharray="1 18" opacity="0.72"/>
    <path d="M216 286C328 318 412 386 494 356C590 322 664 246 780 238" stroke="#7dd3fc" stroke-width="8" opacity="0.48"/>
  </g>

  <g filter="url(#shadow)">
    <circle cx="268" cy="358" r="70" fill="url(#cell)"/>
    <circle cx="268" cy="358" r="82" fill="none" stroke="#ffffff" stroke-width="14" opacity="0.88"/>
    <circle cx="268" cy="358" r="28" fill="#ffffff" opacity="0.68"/>

    <ellipse cx="514" cy="354" rx="112" ry="78" transform="rotate(-12 514 354)" fill="url(#cell)" opacity="0.95"/>
    <ellipse cx="514" cy="354" rx="124" ry="90" transform="rotate(-12 514 354)" fill="none" stroke="#ffffff" stroke-width="14" opacity="0.88"/>
    <circle cx="514" cy="354" r="34" fill="#ffffff" opacity="0.7"/>

    <circle cx="742" cy="336" r="82" fill="url(#cell)"/>
    <circle cx="742" cy="336" r="96" fill="none" stroke="#ffffff" stroke-width="14" opacity="0.9"/>
    <circle cx="742" cy="336" r="32" fill="#ffffff" opacity="0.7"/>

    <ellipse cx="982" cy="376" rx="112" ry="76" transform="rotate(10 982 376)" fill="url(#cell)" opacity="0.95"/>
    <ellipse cx="982" cy="376" rx="126" ry="90" transform="rotate(10 982 376)" fill="none" stroke="#ffffff" stroke-width="14" opacity="0.9"/>
    <circle cx="982" cy="376" r="34" fill="#ffffff" opacity="0.7"/>
  </g>

  <g fill="#ffffff" filter="url(#shadow)">
    <circle cx="312" cy="302" r="16" stroke="#0ea5e9" stroke-width="6"/>
    <circle cx="438" cy="430" r="14" stroke="#2dd4bf" stroke-width="6"/>
    <circle cx="620" cy="298" r="15" stroke="#fb7185" stroke-width="6"/>
    <circle cx="844" cy="408" r="14" stroke="#38bdf8" stroke-width="6"/>
    <circle cx="1082" cy="338" r="16" stroke="#14b8a6" stroke-width="6"/>
  </g>

  <g fill="none" stroke="#64748b" stroke-width="3" stroke-linecap="round" opacity="0.34">
    <path d="M218 220H112"/>
    <path d="M538 228H414"/>
    <path d="M748 198H874"/>
    <path d="M990 244H1148"/>
    <circle cx="112" cy="220" r="6"/>
    <circle cx="414" cy="228" r="6"/>
    <circle cx="874" cy="198" r="6"/>
    <circle cx="1148" cy="244" r="6"/>
  </g>

  <g fill="#0f172a" opacity="0.1">
    <rect x="160" y="570" width="142" height="14" rx="7"/>
    <rect x="684" y="568" width="216" height="14" rx="7"/>
  </g>
</svg>
