<svg xmlns="http://www.w3.org/2000/svg" viewBox="0 0 1280 720" role="img" aria-label="Raw scientific manuscript sketch">
  <defs>
    <filter id="paperShadow" x="-20%" y="-20%" width="140%" height="140%">
      <feDropShadow dx="0" dy="18" stdDeviation="22" flood-color="#64748b" flood-opacity="0.12"/>
    </filter>
    <pattern id="grain" width="64" height="64" patternUnits="userSpaceOnUse">
      <circle cx="14" cy="18" r="1.1" fill="#94a3b8" opacity="0.12"/>
      <circle cx="48" cy="36" r="0.9" fill="#94a3b8" opacity="0.1"/>
      <circle cx="27" cy="54" r="0.8" fill="#94a3b8" opacity="0.08"/>
    </pattern>
  </defs>
  <rect width="1280" height="720" fill="#f9faf7"/>
  <rect x="58" y="48" width="1164" height="624" rx="34" fill="#fffdf7" filter="url(#paperShadow)"/>
  <rect x="58" y="48" width="1164" height="624" rx="34" fill="url(#grain)"/>

  <g fill="none" stroke="#64748b" stroke-linecap="round" stroke-linejoin="round" opacity="0.78">
    <path d="M174 362C250 254 344 278 430 352C524 432 628 426 714 334C796 246 892 258 1014 330" stroke-width="5"/>
    <path d="M192 444C312 494 440 496 548 432C668 362 786 378 916 474" stroke-width="3.2" stroke-dasharray="12 15"/>
    <path d="M216 286C328 318 410 386 492 356C588 322 662 246 774 238" stroke-width="3.4"/>
    <path d="M925 312L1038 312L1010 292" stroke-width="4.4"/>
    <path d="M1010 332L1038 312" stroke-width="4.4"/>
  </g>

  <g fill="#ffffff" stroke="#475569" stroke-width="4.5" opacity="0.88">
    <circle cx="266" cy="358" r="62"/>
    <ellipse cx="514" cy="354" rx="96" ry="70" transform="rotate(-12 514 354)"/>
    <circle cx="742" cy="336" r="72"/>
    <ellipse cx="982" cy="376" rx="94" ry="68" transform="rotate(10 982 376)"/>
  </g>

  <g fill="none" stroke="#38bdf8" stroke-linecap="round" opacity="0.72">
    <path d="M226 388C266 330 316 333 350 392" stroke-width="7"/>
    <path d="M472 330C520 284 580 306 600 364" stroke-width="6"/>
    <path d="M704 350C752 302 810 320 822 378" stroke-width="6"/>
    <path d="M932 392C968 340 1038 346 1066 404" stroke-width="7"/>
  </g>

  <g fill="#ffffff" stroke="#94a3b8" stroke-width="3" opacity="0.8">
    <circle cx="312" cy="302" r="13"/>
    <circle cx="438" cy="430" r="11"/>
    <circle cx="620" cy="298" r="12"/>
    <circle cx="844" cy="408" r="10"/>
    <circle cx="1082" cy="338" r="12"/>
  </g>

  <g stroke="#94a3b8" stroke-width="3" stroke-linecap="round" opacity="0.52">
    <path d="M218 220H112"/>
    <path d="M538 228H414"/>
    <path d="M748 198H874"/>
    <path d="M990 244H1148"/>
    <path d="M180 535H356"/>
    <path d="M682 548H940"/>
  </g>
</svg>
