<svg xmlns="http://www.w3.org/2000/svg" viewBox="0 0 980 980" role="img" aria-label="Premium scientific visual with translucent cellular structure">
  <defs>
    <radialGradient id="halo" cx="50%" cy="48%" r="48%">
      <stop offset="0%" stop-color="#e8fbff" stop-opacity="0.98"/>
      <stop offset="62%" stop-color="#c9f2ff" stop-opacity="0.38"/>
      <stop offset="100%" stop-color="#ffffff" stop-opacity="0"/>
    </radialGradient>
    <linearGradient id="membrane" x1="15%" x2="86%" y1="18%" y2="88%">
      <stop offset="0%" stop-color="#7cf4ee"/>
      <stop offset="47%" stop-color="#b8f5de"/>
      <stop offset="100%" stop-color="#ffd7d0"/>
    </linearGradient>
    <linearGradient id="ribbon" x1="0%" x2="100%" y1="0%" y2="100%">
      <stop offset="0%" stop-color="#4ed9f4"/>
      <stop offset="55%" stop-color="#8bf3dc"/>
      <stop offset="100%" stop-color="#ffb3a8"/>
    </linearGradient>
    <filter id="softShadow" x="-35%" y="-35%" width="170%" height="170%">
      <feDropShadow dx="0" dy="34" stdDeviation="38" flood-color="#0f172a" flood-opacity="0.16"/>
    </filter>
    <filter id="smallShadow" x="-40%" y="-40%" width="180%" height="180%">
      <feDropShadow dx="0" dy="18" stdDeviation="18" flood-color="#0f172a" flood-opacity="0.14"/>
    </filter>
    <filter id="blur">
      <feGaussianBlur stdDeviation="18"/>
    </filter>
  </defs>

  <circle cx="500" cy="500" r="430" fill="url(#halo)"/>
  <circle cx="512" cy="474" r="260" fill="#b9ecff" opacity="0.14" filter="url(#blur)"/>

  <g fill="none" stroke-linecap="round" stroke-linejoin="round">
    <ellipse cx="501" cy="494" rx="360" ry="218" stroke="#65cdec" stroke-width="3.5" opacity="0.58" transform="rotate(-17 501 494)"/>
    <ellipse cx="500" cy="493" rx="326" ry="204" stroke="#8be8db" stroke-width="3.5" opacity="0.42" transform="rotate(25 500 493)"/>
    <path d="M158 546C274 275 390 350 500 476C613 604 704 685 830 300" stroke="#778391" stroke-width="6" opacity="0.46"/>
    <path d="M190 342C306 436 394 624 540 465C642 354 728 334 820 438" stroke="#8792a0" stroke-width="4.8" opacity="0.36"/>
  </g>

  <g filter="url(#softShadow)">
    <path d="M324 370C400 250 573 239 663 360C750 477 690 657 540 710C404 758 257 653 244 508C238 448 276 408 324 370Z" fill="url(#membrane)" opacity="0.97"/>
    <path d="M324 370C400 250 573 239 663 360C750 477 690 657 540 710C404 758 257 653 244 508C238 448 276 408 324 370Z" fill="none" stroke="#ffffff" stroke-width="24" opacity="0.83"/>
    <path d="M392 472C411 407 513 376 574 426C636 477 612 589 531 618C457 645 371 582 392 472Z" fill="#ffffff" opacity="0.66"/>
    <path d="M418 485C450 435 528 428 560 486C588 537 542 594 486 583C435 573 394 524 418 485Z" fill="#e8fbff" opacity="0.68"/>
  </g>

  <g filter="url(#smallShadow)">
    <path d="M214 704C282 665 352 668 426 718" stroke="url(#ribbon)" stroke-width="34" fill="none" stroke-linecap="round" opacity="0.84"/>
    <path d="M650 218C713 250 753 304 780 384" stroke="url(#ribbon)" stroke-width="28" fill="none" stroke-linecap="round" opacity="0.74"/>
    <path d="M688 712C742 676 792 624 826 548" stroke="#7dd3fc" stroke-width="22" fill="none" stroke-linecap="round" opacity="0.62"/>
  </g>

  <g filter="url(#smallShadow)">
    <rect x="96" y="168" width="240" height="138" rx="34" fill="#ffffff" opacity="0.86"/>
    <rect x="128" y="202" width="72" height="10" rx="5" fill="#94a3b8" opacity="0.52"/>
    <rect x="128" y="232" width="152" height="18" rx="9" fill="#d8eef8"/>
    <path d="M130 274C174 246 224 250 278 270" fill="none" stroke="#8ee9de" stroke-width="10" stroke-linecap="round" opacity="0.76"/>
  </g>

  <g filter="url(#smallShadow)" transform="rotate(8 740 214)">
    <rect x="642" y="134" width="218" height="156" rx="32" fill="#ffffff" opacity="0.76"/>
    <rect x="675" y="170" width="88" height="10" rx="5" fill="#94a3b8" opacity="0.52"/>
    <circle cx="724" cy="232" r="30" fill="#cdf6ff"/>
    <circle cx="770" cy="230" r="18" fill="#ffc9c1"/>
    <path d="M680 252C718 278 762 278 815 244" fill="none" stroke="#46cfe8" stroke-width="8" stroke-linecap="round" opacity="0.58"/>
  </g>

  <g fill="#ffffff" stroke-width="6">
    <circle cx="330" cy="420" r="18" stroke="#0ea5e9"/>
    <circle cx="626" cy="430" r="17" stroke="#14b8a6"/>
    <circle cx="510" cy="654" r="16" stroke="#fb7185"/>
    <circle cx="748" cy="358" r="12" stroke="#38bdf8"/>
    <circle cx="240" cy="557" r="12" stroke="#2dd4bf"/>
  </g>
</svg>
