<svg xmlns="http://www.w3.org/2000/svg" viewBox="0 0 960 720" role="img" aria-label="Clean scientific article visual preview">
  <defs>
    <radialGradient id="paperGlow" cx="50%" cy="45%" r="58%">
      <stop offset="0%" stop-color="#e5fbff"/>
      <stop offset="72%" stop-color="#ffffff"/>
    </radialGradient>
    <linearGradient id="cyanGlass" x1="0%" x2="100%" y1="0%" y2="100%">
      <stop offset="0%" stop-color="#73e7f5"/>
      <stop offset="55%" stop-color="#a7f3d0"/>
      <stop offset="100%" stop-color="#ffe0dc"/>
    </linearGradient>
    <linearGradient id="signal" x1="0%" x2="100%" y1="0%" y2="0%">
      <stop offset="0%" stop-color="#22d3ee"/>
      <stop offset="70%" stop-color="#2dd4bf"/>
      <stop offset="100%" stop-color="#fb7185"/>
    </linearGradient>
    <filter id="shadow" x="-30%" y="-30%" width="160%" height="160%">
      <feDropShadow dx="0" dy="24" stdDeviation="26" flood-color="#0f172a" flood-opacity="0.12"/>
    </filter>
  </defs>

  <rect x="22" y="22" width="916" height="676" rx="42" fill="url(#paperGlow)"/>
  <rect x="78" y="78" width="804" height="564" rx="28" fill="#ffffff" opacity="0.58"/>

  <g fill="none" stroke-linecap="round" stroke-linejoin="round" opacity="0.64">
    <path d="M156 388C272 256 392 286 482 370C590 472 704 448 810 314" stroke="#748391" stroke-width="5"/>
    <path d="M172 450C286 496 390 512 504 440C630 360 724 386 806 462" stroke="#94a3b8" stroke-width="4"/>
    <path d="M202 306C318 340 392 426 486 372C586 314 682 236 790 254" stroke="#8dd7e8" stroke-width="10" opacity="0.65"/>
  </g>

  <g filter="url(#shadow)">
    <path d="M328 254C386 172 517 170 584 250C648 326 618 454 512 494C416 530 302 458 294 356C290 318 306 286 328 254Z" fill="url(#cyanGlass)"/>
    <path d="M328 254C386 172 517 170 584 250C648 326 618 454 512 494C416 530 302 458 294 356C290 318 306 286 328 254Z" fill="none" stroke="#ffffff" stroke-width="18" opacity="0.82"/>
    <circle cx="460" cy="354" r="56" fill="#ffffff" opacity="0.66"/>
  </g>

  <g filter="url(#shadow)" opacity="0.94">
    <path d="M156 520C250 456 354 454 450 526" stroke="url(#signal)" stroke-width="26" fill="none" stroke-linecap="round"/>
    <path d="M574 208C658 230 722 286 770 376" stroke="#7dd3fc" stroke-width="24" fill="none" stroke-linecap="round"/>
    <path d="M610 542C684 504 750 448 808 366" stroke="#94f0df" stroke-width="20" fill="none" stroke-linecap="round"/>
  </g>

  <g filter="url(#shadow)">
    <circle cx="236" cy="324" r="48" fill="#e4fbff"/>
    <circle cx="236" cy="324" r="22" fill="#38bdf8" opacity="0.82"/>
    <circle cx="720" cy="468" r="54" fill="#ecfeff"/>
    <circle cx="720" cy="468" r="25" fill="#fb7185" opacity="0.76"/>
    <circle cx="610" cy="292" r="30" fill="#ccfbf1"/>
  </g>

  <g fill="#ffffff" stroke-width="5">
    <circle cx="354" cy="302" r="12" stroke="#0ea5e9"/>
    <circle cx="544" cy="312" r="14" stroke="#14b8a6"/>
    <circle cx="510" cy="448" r="13" stroke="#fb7185"/>
    <circle cx="274" cy="492" r="10" stroke="#2dd4bf"/>
    <circle cx="778" cy="296" r="10" stroke="#38bdf8"/>
  </g>

  <g fill="none" stroke="#64748b" stroke-width="3" stroke-linecap="round" opacity="0.32">
    <path d="M248 268H142"/>
    <path d="M616 248H800"/>
    <path d="M728 526H838"/>
    <circle cx="142" cy="268" r="7"/>
    <circle cx="800" cy="248" r="7"/>
    <circle cx="838" cy="526" r="7"/>
  </g>
</svg>
